<svg xmlns="http://www.w3.org/2000/svg" viewBox="0 0 180 180">
  <!-- Wine background -->
  <rect width="180" height="180" fill="#5C1A22"/>

  <!-- Full agave silhouette in wine, same leaf structure as the site -->
  <g transform="translate(90,148) scale(0.6)" fill="#F5F1EA" opacity="0.95">
    <path d="M0,0 C-18,-30,-14,-100,0,-175 C14,-100,18,-30,0,0Z M0,-175 L-1.5,-186 L0,-194 L1.5,-186Z"/>
    <g transform="rotate(20) scale(.88)"><path d="M0,0 C-18,-30,-14,-100,0,-175 C14,-100,18,-30,0,0Z M0,-175 L-1.5,-186 L0,-194 L1.5,-186Z"/></g>
    <g transform="rotate(-20) scale(.88)"><path d="M0,0 C-18,-30,-14,-100,0,-175 C14,-100,18,-30,0,0Z M0,-175 L-1.5,-186 L0,-194 L1.5,-186Z"/></g>
    <g transform="rotate(40) scale(.76)"><path d="M0,0 C-18,-30,-14,-100,0,-175 C14,-100,18,-30,0,0Z M0,-175 L-1.5,-186 L0,-194 L1.5,-186Z"/></g>
    <g transform="rotate(-40) scale(.76)"><path d="M0,0 C-18,-30,-14,-100,0,-175 C14,-100,18,-30,0,0Z M0,-175 L-1.5,-186 L0,-194 L1.5,-186Z"/></g>
    <g transform="rotate(60) scale(.62)"><path d="M0,0 C-18,-30,-14,-100,0,-175 C14,-100,18,-30,0,0Z M0,-175 L-1.5,-186 L0,-194 L1.5,-186Z"/></g>
    <g transform="rotate(-60) scale(.62)"><path d="M0,0 C-18,-30,-14,-100,0,-175 C14,-100,18,-30,0,0Z M0,-175 L-1.5,-186 L0,-194 L1.5,-186Z"/></g>
    <g transform="rotate(78) scale(.5)"><path d="M0,0 C-18,-30,-14,-100,0,-175 C14,-100,18,-30,0,0Z M0,-175 L-1.5,-186 L0,-194 L1.5,-186Z"/></g>
    <g transform="rotate(-78) scale(.5)"><path d="M0,0 C-18,-30,-14,-100,0,-175 C14,-100,18,-30,0,0Z M0,-175 L-1.5,-186 L0,-194 L1.5,-186Z"/></g>
  </g>

</svg>
